<?xml version="1.0" standalone="no"?>
<!DOCTYPE svg PUBLIC "-//W3C//DTD SVG 20010904//EN"
 "http://www.w3.org/TR/2001/REC-SVG-20010904/DTD/svg10.dtd">
<svg version="1.0" xmlns="http://www.w3.org/2000/svg"
 width="215.000000pt" height="234.000000pt" viewBox="0 0 215.000000 234.000000"
 preserveAspectRatio="xMidYMid meet">

<g transform="translate(0.000000,234.000000) scale(0.100000,-0.100000)"
fill="#000000" stroke="none">
<path d="M530 2112 c0 -5 -7 -58 -15 -118 -9 -60 -29 -210 -45 -334 -16 -124
-50 -380 -76 -570 -25 -190 -48 -361 -50 -380 -3 -19 -9 -66 -14 -105 -5 -38
-17 -124 -25 -190 -8 -66 -17 -132 -20 -147 l-4 -28 779 0 780 0 4 22 c3 13
24 169 46 348 22 179 47 375 55 435 56 420 135 1042 135 1057 0 17 -34 18
-775 18 -426 0 -775 -4 -775 -8z m919 -415 c83 -29 92 -42 61 -101 -13 -25
-24 -46 -26 -46 -1 0 -25 12 -53 26 -65 34 -142 37 -191 9 -37 -22 -50 -45
-25 -45 20 0 102 -37 109 -49 5 -7 -27 -95 -39 -109 -2 -2 -18 6 -36 17 -19
12 -38 21 -44 21 -22 -1 45 -44 132 -85 115 -54 157 -86 191 -144 23 -39 27
-58 27 -121 0 -61 -5 -83 -25 -120 -30 -52 -96 -105 -149 -120 -29 -7 -42 -18
-51 -40 -19 -45 -91 -104 -151 -123 -97 -32 -275 -15 -337 32 -23 17 -23 17
-6 62 9 24 20 47 23 51 4 4 31 -4 61 -19 95 -45 221 -42 265 7 17 19 17 20 -2
20 -31 0 -116 29 -140 48 l-21 17 23 52 24 53 48 -24 c26 -14 61 -28 76 -32
l29 -7 -16 31 c-16 30 -82 76 -146 102 -87 34 -161 93 -191 152 -26 50 -26
146 0 197 28 54 93 109 147 123 32 9 49 20 55 36 48 125 220 184 378 129z"/>
<path d="M1232 1667 c-46 -14 -118 -81 -131 -120 -10 -29 -18 -35 -62 -46 -90
-23 -159 -111 -159 -201 1 -39 34 -103 71 -135 19 -15 75 -47 124 -70 104 -48
152 -86 171 -132 33 -77 11 -89 -98 -52 -49 16 -63 18 -69 7 -5 -7 -9 -16 -9
-19 0 -13 112 -49 151 -49 38 0 37 -20 -1 -64 -35 -39 -103 -66 -164 -66 -23
0 -71 11 -109 24 -37 12 -69 20 -72 18 -14 -14 -2 -41 23 -51 84 -33 169 -38
253 -15 69 19 122 61 145 115 12 27 26 42 44 46 39 9 113 49 133 71 43 48 60
161 33 225 -22 53 -75 95 -191 152 -118 57 -150 84 -165 133 -8 28 -6 32 11
32 11 0 36 -7 56 -15 40 -17 63 -14 63 9 0 16 -68 46 -105 46 -17 0 -25 6 -25
18 0 28 57 90 96 102 46 15 150 9 191 -12 32 -16 53 -9 53 17 0 34 -182 57
-258 32z m-142 -217 c0 -34 36 -95 72 -122 19 -15 77 -47 129 -71 112 -54 156
-95 167 -157 14 -80 -11 -144 -71 -180 -43 -27 -67 -26 -67 3 -1 38 -35 101
-75 136 -21 18 -77 51 -124 73 -100 46 -145 78 -166 118 -20 39 -19 98 4 140
34 65 131 109 131 60z"/>
<path d="M1011 1400 c-33 -33 -40 -59 -30 -108 11 -50 33 -68 154 -127 60 -29
120 -62 132 -74 39 -37 71 -85 80 -120 l9 -33 31 29 c34 32 50 85 39 128 -11
44 -58 83 -163 134 -118 58 -163 95 -193 156 -12 25 -23 45 -25 45 -2 0 -17
-14 -34 -30z"/>
</g>
</svg>
